<svg width="77" height="77" viewBox="0 0 77 77" fill="none" xmlns="http://www.w3.org/2000/svg">
<path d="M41.8206 54.0183H34.2169V42.6127H22.8113V35.0089H34.2169V23.6033H41.8206V35.0089H53.2263V42.6127H41.8206V54.0183ZM38.0188 76.8296C17.1084 76.8296 0 59.7211 0 38.8108C0 17.9005 17.1084 0.792053 38.0188 0.792053C58.9291 0.792053 76.0375 17.9005 76.0375 38.8108C76.0375 59.7211 58.9291 76.8296 38.0188 76.8296ZM38.0188 8.39581C21.2905 8.39581 7.60375 22.0826 7.60375 38.8108C7.60375 55.5391 21.2905 69.2258 38.0188 69.2258C54.747 69.2258 68.4338 55.5391 68.4338 38.8108C68.4338 22.0826 54.747 8.39581 38.0188 8.39581Z" fill="url(#paint0_linear)"/>
<defs>
<linearGradient id="paint0_linear" x1="76.0375" y1="76.8296" x2="0" y2="0.792049" gradientUnits="userSpaceOnUse">
<stop stop-color="#1E6FAA"/>
<stop offset="1" stop-color="#6040E0"/>
</linearGradient>
</defs>
</svg>
