<?xml version="1.0" encoding="UTF-8" standalone="no"?>
<svg
   xmlns:dc="http://purl.org/dc/elements/1.1/"
   xmlns:cc="http://creativecommons.org/ns#"
   xmlns:rdf="http://www.w3.org/1999/02/22-rdf-syntax-ns#"
   xmlns:svg="http://www.w3.org/2000/svg"
   xmlns="http://www.w3.org/2000/svg"
   xmlns:sodipodi="http://sodipodi.sourceforge.net/DTD/sodipodi-0.dtd"
   xmlns:inkscape="http://www.inkscape.org/namespaces/inkscape"
   width="294"
   height="295"
   viewBox="0 0 400 400"
   fill="none"
   version="1.1"
   id="svg4"
   sodipodi:docname="bottle-padded.svg"
   inkscape:version="1.0.1 (3bc2e813f5, 2020-09-07)">
  <metadata
     id="metadata10">
    <rdf:RDF>
      <cc:Work
         rdf:about="">
        <dc:format>image/svg+xml</dc:format>
        <dc:type
           rdf:resource="http://purl.org/dc/dcmitype/StillImage" />
        <dc:title></dc:title>
      </cc:Work>
    </rdf:RDF>
  </metadata>
  <defs
     id="defs8" />
  <sodipodi:namedview
     pagecolor="#ffffff"
     bordercolor="#666666"
     borderopacity="1"
     objecttolerance="10"
     gridtolerance="10"
     guidetolerance="10"
     inkscape:pageopacity="0"
     inkscape:pageshadow="2"
     inkscape:window-width="1318"
     inkscape:window-height="702"
     id="namedview6"
     showgrid="false"
     inkscape:zoom="1.8847458"
     inkscape:cx="74.987464"
     inkscape:cy="163.73219"
     inkscape:window-x="48"
     inkscape:window-y="29"
     inkscape:window-maximized="1"
     inkscape:current-layer="svg4" />
  <path
     d="m 300.5074,57.415315 -40.357,24.21475 -7.423,-7.425 c -3.363,-3.3615 -8.815,-3.3615 -12.179,0 l -24.353,24.3561 c -3.364,3.363795 -3.364,8.815295 0,12.176895 l 6.088,6.0907 -12.785,12.7846 c -16.547,-10.9861 -39.327,-9.385 -54.192,5.4807 l -99.750159,99.7498 c -3.363786,3.364 -3.363786,8.815 0,12.177 l 97.421959,97.424 c 3.3612,3.362 8.8152,3.362 12.1772,0 l 99.749,-99.75 c 14.85,-14.85 16.481,-37.629 5.481,-54.193 l 12.787,-12.784 6.088,6.088 c 3.362,3.362 8.816,3.364 12.177,0 l 24.356,-24.356 c 3.364,-3.364 3.364,-8.8151 0,-12.1766 l -7.422,-7.425 24.212,-40.356495 c 7.255,-12.0894 5.358,-27.4956 -4.61,-37.46358 -9.971,-9.970263 -25.377,-11.8652 -37.466,-4.61287 z m -53.868,83.769445 -12.179,12.1771 -12.177,-12.1771 12.177,-12.1791 z m -42.624,6.0885 18.268,18.2656 -27.487,27.486 c -4.294,-8.411 -9.9,-16.162 -16.572,-22.835 l -16.83,-16.828 6.088,-6.0886 c 10.096,-10.0959 26.438,-10.0981 36.533,0 z m -44.949,178.9036 -85.244799,-85.245 75.395899,-75.393 16.8279,16.83 c 6.734,6.734 12.125,14.825 15.785,23.623 l -41.0314,41.031 c -3.3615,3.364 -3.3615,8.815 0,12.177 3.3638,3.364 8.8154,3.364 12.1792,0 l 35.9032,-35.903 c 4.294,8.412 9.9,16.162 16.572,22.836 l 16.83,16.83 z m 93.661,-93.661 -18.267,18.268 -16.83,-16.83 c -6.735,-6.735 -12.123,-14.826 -15.783,-23.623 l 32.613,-32.613 18.267,18.265 c 10.096,10.096 10.096,26.437 0,36.533 z m 6.089,-54.798 -12.177,-12.179 12.177,-12.177 12.179,12.177 z m 36.533,-12.179 -60.889,-60.8893 12.179,-12.176895 60.889,60.889195 z m 32.467,-74.907295 -21.999,36.665295 -33.113,-33.115395 36.663,-21.9991 c 5.301,-3.1799 12.056,-2.348 16.426,2.0227 4.371,4.3707 5.203,11.1274 2.023,16.4265 z"
     fill="#ffffff"
     fill-opacity="0.1"
     id="path2" />
</svg>
