<svg width="104" height="99" viewBox="0 0 104 99" fill="none" xmlns="http://www.w3.org/2000/svg">
<circle cx="52.5841" cy="49.2274" r="42.5348" stroke="url(#paint0_linear)" stroke-opacity="0.25" stroke-width="0.495192" stroke-linecap="square"/>
<circle cx="53.0519" cy="49.3556" r="49.1575" stroke="url(#paint1_linear)" stroke-opacity="0.2" stroke-width="0.396154" stroke-linecap="round" stroke-linejoin="round"/>
<rect x="75.168" y="64.3506" width="19.4496" height="19.4496" rx="9.7248" fill="url(#paint2_linear)"/>
<rect x="75.2195" y="64.4021" width="19.3466" height="19.3466" rx="9.6733" stroke="black" stroke-opacity="0.2" stroke-width="0.102991"/>
<rect x="71.9258" y="4.61285" width="31.4898" height="31.4898" rx="15.7449" fill="url(#paint3_linear)"/>
<rect x="71.9773" y="4.66435" width="31.3868" height="31.3868" rx="15.6934" stroke="black" stroke-opacity="0.2" stroke-width="0.102991"/>
<g filter="url(#filter0_d)">
<rect x="2" y="52.3109" width="40.4298" height="40.4298" rx="20.2149" fill="url(#paint4_linear)"/>
<rect x="2.0515" y="52.3623" width="40.3268" height="40.3268" rx="20.1634" stroke="black" stroke-opacity="0.2" stroke-width="0.102991"/>
</g>
<g filter="url(#filter1_d)">
<g filter="url(#filter2_d)">
<rect x="15.2295" y="11.6678" width="75.3741" height="75.3741" rx="36.6776" fill="url(#paint5_linear)"/>
<rect x="15.281" y="11.7193" width="75.2711" height="75.2711" rx="36.6261" stroke="black" stroke-opacity="0.2" stroke-width="0.102991"/>
</g>
</g>
<g filter="url(#filter3_i)">
<g filter="url(#filter4_d)">
<path d="M84.4487 49.3126C84.5505 49.1951 84.5505 49.0207 84.4487 48.9032L79.816 43.5539C79.6265 43.3351 79.267 43.4691 79.267 43.7586V54.4573C79.267 54.7468 79.6265 54.8808 79.816 54.662L84.4487 49.3126Z" fill="url(#paint6_linear)"/>
<path d="M20.4956 49.3126C20.3939 49.1951 20.3939 49.0207 20.4956 48.9032L25.1283 43.5539C25.3178 43.3351 25.6773 43.4691 25.6773 43.7586L25.6773 54.4573C25.6773 54.7468 25.3178 54.8808 25.1283 54.662L20.4956 49.3126Z" fill="url(#paint7_linear)"/>
</g>
<g filter="url(#filter5_d)">
<path d="M52.4721 18.9964C52.4417 18.9963 52.4115 18.9963 52.3816 18.9962C50.7117 18.9916 49.8531 18.9893 49.7266 22.3908L47.9657 32.7816C47.8893 33.2326 47.4985 33.5628 47.041 33.5628H44.656C43.9324 33.5628 43.364 34.1571 43.364 34.9138L43.3643 37.6157C43.364 38.3722 43.9324 38.9665 44.656 38.9665L45.4285 38.9665C45.9465 38.9665 46.3664 39.3864 46.3664 39.9044L46.3665 43.6173C46.3665 44.0846 46.0197 44.4731 45.5697 44.5988C42.8129 45.3693 40.7805 48.0007 40.7805 51.1253L40.7805 52.2876C40.7805 52.4063 40.8361 52.5182 40.9308 52.59C40.8635 52.552 40.7804 52.6006 40.7804 52.6778L40.7803 72.7409C40.7803 73.4971 41.3488 74.0917 42.072 74.0917H62.7423C63.0852 74.0915 63.3931 73.958 63.6223 73.7371C63.8772 73.4917 64.0349 73.1383 64.035 72.74L64.0348 55.178C64.0348 55.1779 64.0347 55.1778 64.0346 55.1778C64.0344 55.1778 64.0343 55.1777 64.0343 55.1776L64.0343 51.1253C64.0343 51.0794 64.0339 51.0335 64.033 50.9878C64.0303 50.8421 64.0231 50.6975 64.0116 50.5542C63.775 47.5989 61.7164 45.1826 59.0152 44.5387C58.5451 44.4266 58.1754 44.0299 58.1755 43.5467L58.1768 39.9044C58.177 39.3866 58.5969 38.9669 59.1148 38.9669H60.1588C60.8822 38.9666 61.4505 38.3723 61.4505 37.6161V34.914C61.4505 34.5437 61.3145 34.2123 61.0907 33.9704C60.8572 33.7178 60.5281 33.5628 60.1584 33.5628H57.7401C57.2771 33.5628 56.8834 33.225 56.813 32.7674L55.2177 22.3908C55.0911 18.9893 54.2325 18.9916 52.5626 18.9962C52.5327 18.9963 52.5025 18.9963 52.4721 18.9964Z" fill="url(#paint8_linear)"/>
<path d="M41.2794 74.0623L51.3356 79.0698C51.6814 79.2419 52.0608 79.3282 52.4403 79.3282C52.8198 79.3282 53.1991 79.2419 53.545 79.0698L63.6012 74.0623C63.8307 73.9481 64.0468 73.007 63.954 73.1927C63.7463 73.608 63.8307 72.9663 63.6012 72.8521L53.545 67.8444C52.8532 67.5001 52.0274 67.5001 51.3356 67.8444L41.2794 72.8521C41.0836 72.9495 41.2514 73.2795 41.0474 73.2458C40.9479 73.2293 40.8292 73.1531 40.8477 73.2523C40.8872 73.4627 41.1149 73.9805 41.2794 74.0623Z" fill="white"/>
</g>
</g>
<defs>
<filter id="filter0_d" x="0.970093" y="52.3109" width="42.4896" height="42.4896" filterUnits="userSpaceOnUse" color-interpolation-filters="sRGB">
<feFlood flood-opacity="0" result="BackgroundImageFix"/>
<feColorMatrix in="SourceAlpha" type="matrix" values="0 0 0 0 0 0 0 0 0 0 0 0 0 0 0 0 0 0 127 0"/>
<feOffset dy="1.02991"/>
<feGaussianBlur stdDeviation="0.514953"/>
<feColorMatrix type="matrix" values="0 0 0 0 0 0 0 0 0 0 0 0 0 0 0 0 0 0 0.25 0"/>
<feBlend mode="normal" in2="BackgroundImageFix" result="effect1_dropShadow"/>
<feBlend mode="normal" in="SourceGraphic" in2="effect1_dropShadow" result="shape"/>
</filter>
<filter id="filter1_d" x="12.1398" y="9.60797" width="81.5536" height="81.5536" filterUnits="userSpaceOnUse" color-interpolation-filters="sRGB">
<feFlood flood-opacity="0" result="BackgroundImageFix"/>
<feColorMatrix in="SourceAlpha" type="matrix" values="0 0 0 0 0 0 0 0 0 0 0 0 0 0 0 0 0 0 127 0"/>
<feOffset dy="1.02991"/>
<feGaussianBlur stdDeviation="1.54486"/>
<feColorMatrix type="matrix" values="0 0 0 0 0 0 0 0 0 0 0 0 0 0 0 0 0 0 0.25 0"/>
<feBlend mode="normal" in2="BackgroundImageFix" result="effect1_dropShadow"/>
<feBlend mode="normal" in="SourceGraphic" in2="effect1_dropShadow" result="shape"/>
</filter>
<filter id="filter2_d" x="3.94407" y="0.94663" width="97.945" height="97.945" filterUnits="userSpaceOnUse" color-interpolation-filters="sRGB">
<feFlood flood-opacity="0" result="BackgroundImageFix"/>
<feColorMatrix in="SourceAlpha" type="matrix" values="0 0 0 0 0 0 0 0 0 0 0 0 0 0 0 0 0 0 127 0"/>
<feOffset dy="0.564271"/>
<feGaussianBlur stdDeviation="5.64271"/>
<feColorMatrix type="matrix" values="0 0 0 0 0 0 0 0 0 0 0 0 0 0 0 0 0 0 0.12 0"/>
<feBlend mode="normal" in2="BackgroundImageFix" result="effect1_dropShadow"/>
<feBlend mode="normal" in="SourceGraphic" in2="effect1_dropShadow" result="shape"/>
</filter>
<filter id="filter3_i" x="20.4189" y="18.9958" width="64.1056" height="60.5899" filterUnits="userSpaceOnUse" color-interpolation-filters="sRGB">
<feFlood flood-opacity="0" result="BackgroundImageFix"/>
<feBlend mode="normal" in="SourceGraphic" in2="BackgroundImageFix" result="shape"/>
<feColorMatrix in="SourceAlpha" type="matrix" values="0 0 0 0 0 0 0 0 0 0 0 0 0 0 0 0 0 0 127 0" result="hardAlpha"/>
<feOffset dy="1.02991"/>
<feGaussianBlur stdDeviation="0.128738"/>
<feComposite in2="hardAlpha" operator="arithmetic" k2="-1" k3="1"/>
<feColorMatrix type="matrix" values="0 0 0 0 0 0 0 0 0 0 0 0 0 0 0 0 0 0 0.2 0"/>
<feBlend mode="lighten" in2="shape" result="effect1_innerShadow"/>
</filter>
<filter id="filter4_d" x="19.4436" y="43.4453" width="66.0563" height="13.276" filterUnits="userSpaceOnUse" color-interpolation-filters="sRGB">
<feFlood flood-opacity="0" result="BackgroundImageFix"/>
<feColorMatrix in="SourceAlpha" type="matrix" values="0 0 0 0 0 0 0 0 0 0 0 0 0 0 0 0 0 0 127 0"/>
<feOffset dy="0.975348"/>
<feGaussianBlur stdDeviation="0.487674"/>
<feColorMatrix type="matrix" values="0 0 0 0 0 0 0 0 0 0 0 0 0 0 0 0 0 0 0.25 0"/>
<feBlend mode="normal" in2="BackgroundImageFix" result="effect1_dropShadow"/>
<feBlend mode="normal" in="SourceGraphic" in2="effect1_dropShadow" result="shape"/>
</filter>
<filter id="filter5_d" x="39.8049" y="18.9958" width="25.2054" height="62.2831" filterUnits="userSpaceOnUse" color-interpolation-filters="sRGB">
<feFlood flood-opacity="0" result="BackgroundImageFix"/>
<feColorMatrix in="SourceAlpha" type="matrix" values="0 0 0 0 0 0 0 0 0 0 0 0 0 0 0 0 0 0 127 0"/>
<feOffset dy="0.975348"/>
<feGaussianBlur stdDeviation="0.487674"/>
<feColorMatrix type="matrix" values="0 0 0 0 0 0 0 0 0 0 0 0 0 0 0 0 0 0 0.25 0"/>
<feBlend mode="normal" in2="BackgroundImageFix" result="effect1_dropShadow"/>
<feBlend mode="normal" in="SourceGraphic" in2="effect1_dropShadow" result="shape"/>
</filter>
<linearGradient id="paint0_linear" x1="52.5841" y1="6.44507" x2="52.5841" y2="92.0098" gradientUnits="userSpaceOnUse">
<stop stop-color="#905BFF" stop-opacity="0.48"/>
<stop offset="1" stop-color="white" stop-opacity="0"/>
</linearGradient>
<linearGradient id="paint1_linear" x1="53.0519" y1="0" x2="53.0519" y2="98.7112" gradientUnits="userSpaceOnUse">
<stop stop-color="#7238ED" stop-opacity="0.31"/>
<stop offset="0.713542" stop-color="white" stop-opacity="0"/>
</linearGradient>
<linearGradient id="paint2_linear" x1="94.6176" y1="64.3506" x2="75.168" y2="83.8002" gradientUnits="userSpaceOnUse">
<stop stop-color="#76DF0C"/>
<stop offset="1" stop-color="#EF8C18"/>
</linearGradient>
<linearGradient id="paint3_linear" x1="103.416" y1="4.61285" x2="71.9258" y2="36.1027" gradientUnits="userSpaceOnUse">
<stop stop-color="#76DF0C"/>
<stop offset="1" stop-color="#EF8C18"/>
</linearGradient>
<linearGradient id="paint4_linear" x1="42.4298" y1="52.3108" x2="2" y2="92.7406" gradientUnits="userSpaceOnUse">
<stop stop-color="#F2BEA8"/>
<stop offset="0.0001" stop-color="#78D231"/>
<stop offset="1" stop-color="#19B7A4"/>
</linearGradient>
<linearGradient id="paint5_linear" x1="90.6036" y1="11.6678" x2="15.2295" y2="87.0419" gradientUnits="userSpaceOnUse">
<stop stop-color="#D94D6C"/>
<stop offset="0.489415" stop-color="#9756AE"/>
<stop offset="1" stop-color="#5E87AC"/>
</linearGradient>
<linearGradient id="paint6_linear" x1="84.626" y1="41.9627" x2="74.3762" y2="53.4936" gradientUnits="userSpaceOnUse">
<stop offset="1" stop-color="white"/>
</linearGradient>
<linearGradient id="paint7_linear" x1="20.3184" y1="41.9627" x2="30.5681" y2="53.4936" gradientUnits="userSpaceOnUse">
<stop offset="1" stop-color="white"/>
</linearGradient>
<linearGradient id="paint8_linear" x1="64.035" y1="18.9958" x2="31.5867" y2="25.0828" gradientUnits="userSpaceOnUse">
<stop offset="1" stop-color="white"/>
</linearGradient>
</defs>
</svg>
